HIERARCHY
ROOT joint_Root
{
	OFFSET 0.0 0.0 0.0
	CHANNELS 6 Xposition Yposition Zposition Zrotation Xrotation Yrotation 
	JOINT Hips
	{
		OFFSET -17.1583 93.1646 452.98
		CHANNELS 6 Xposition Yposition Zposition Zrotation Xrotation Yrotation 
		JOINT Spine
		{
			OFFSET 15.7357 0.0 0.0
			CHANNELS 6 Xposition Yposition Zposition Zrotation Xrotation Yrotation 
			JOINT Chest
			{
				OFFSET 8.98455 -0.406207 0.0
				CHANNELS 6 Xposition Yposition Zposition Zrotation Xrotation Yrotation 
				JOINT Neck
				{
					OFFSET 16.3773 0.0 0.0
					CHANNELS 6 Xposition Yposition Zposition Zrotation Xrotation Yrotation 
					JOINT Head
					{
						OFFSET 6.45672 0.0 0.0
						CHANNELS 6 Xposition Yposition Zposition Zrotation Xrotation Yrotation 
						End Site
						{
							OFFSET 0.0 0.0 0.0
						}
					}
				}
				JOINT Shoulder_L
				{
					OFFSET 12.9942 -0.242716 4.98039
					CHANNELS 6 Xposition Yposition Zposition Zrotation Xrotation Yrotation 
					JOINT UpperArm_L
					{
						OFFSET 5.34809 0.0 0.0
						CHANNELS 6 Xposition Yposition Zposition Zrotation Xrotation Yrotation 
						JOINT LowerArm_L
						{
							OFFSET 24.3286 1.87007e-05 0.0
							CHANNELS 6 Xposition Yposition Zposition Zrotation Xrotation Yrotation 
							JOINT Hand_L
							{
								OFFSET 22.2916 0.0 0.0
								CHANNELS 6 Xposition Yposition Zposition Zrotation Xrotation Yrotation 
								End Site
								{
									OFFSET 0.0 0.0 0.0
								}
							}
						}
					}
				}
				JOINT Shoulder_R
				{
					OFFSET 12.9945 -0.242716 -4.98039
					CHANNELS 6 Xposition Yposition Zposition Zrotation Xrotation Yrotation 
					JOINT UpperArm_R
					{
						OFFSET -5.34813 0.0 0.0
						CHANNELS 6 Xposition Yposition Zposition Zrotation Xrotation Yrotation 
						JOINT LowerArm_R
						{
							OFFSET -24.3289 0.000322201 0.0
							CHANNELS 6 Xposition Yposition Zposition Zrotation Xrotation Yrotation 
							JOINT Hand_R
							{
								OFFSET -22.2915 -0.000108084 0.0
								CHANNELS 6 Xposition Yposition Zposition Zrotation Xrotation Yrotation 
								End Site
								{
									OFFSET 0.0 0.0 0.0
								}
							}
						}
					}
				}
			}
		}
		JOINT UpperLeg_L
		{
			OFFSET -2.19248 -6.46944 0.0
			CHANNELS 6 Xposition Yposition Zposition Zrotation Xrotation Yrotation 
			JOINT LowerLeg_L
			{
				OFFSET 39.0811 0.0 -1.23785e-05
				CHANNELS 6 Xposition Yposition Zposition Zrotation Xrotation Yrotation 
				JOINT Foot_L
				{
					OFFSET 40.9854 0.0 -1.26872e-05
					CHANNELS 6 Xposition Yposition Zposition Zrotation Xrotation Yrotation 
					JOINT Toes_L
					{
						OFFSET 11.7543 0.0 0.0
						CHANNELS 6 Xposition Yposition Zposition Zrotation Xrotation Yrotation 
						End Site
						{
							OFFSET 0.0 0.0 0.0
						}
					}
				}
			}
		}
		JOINT UpperLeg_R
		{
			OFFSET -2.19251 6.46944 0.0
			CHANNELS 6 Xposition Yposition Zposition Zrotation Xrotation Yrotation 
			JOINT LowerLeg_R
			{
				OFFSET -39.0811 -0.00228153 -0.0401928
				CHANNELS 6 Xposition Yposition Zposition Zrotation Xrotation Yrotation 
				JOINT Foot_R
				{
					OFFSET -40.9854 0.0 0.0
					CHANNELS 6 Xposition Yposition Zposition Zrotation Xrotation Yrotation 
					JOINT Toes_R
					{
						OFFSET -11.7543 0.0 0.0
						CHANNELS 6 Xposition Yposition Zposition Zrotation Xrotation Yrotation 
						End Site
						{
							OFFSET 0.0 0.0 0.0
						}
					}
				}
			}
		}
	}
}
MOTION
Frames:	6
Frame Time:	0.0333333
0.000000 0.000000 0.000000 0.000000 0.000000 -0.000000 174.897000 90.562900 217.990000 98.098600 -48.668800 6.402460 15.735700 0.000005 -0.000001 85.958800 87.519900 -86.434600 8.984550 -0.406207 -0.000000 -2.819360 -0.305497 -0.959161 16.377300 -0.000001 -0.000001 11.666000 -5.796530 -2.228920 6.456720 -0.000001 -0.000000 10.923600 -10.722400 -5.070130 12.994200 -0.242716 4.980390 -92.584600 6.927680 -69.482100 5.348090 -0.000007 -0.000001 -70.297800 -8.738120 9.816980 24.328600 0.000019 0.000005 18.636600 27.858200 -35.817200 22.291600 -0.000001 0.000005 56.110000 4.641510 14.194200 12.994500 -0.242716 -4.980390 89.141400 2.155810 -68.277600 -5.348130 -0.000001 -0.000004 -76.329400 10.542500 -6.152800 -24.328900 0.000322 -0.000009 -2.041630 -3.717590 -28.795100 -22.291500 -0.000108 -0.000004 44.285800 5.476840 -5.629270 -2.192480 -6.469440 -0.000000 -173.975000 -1.571540 -23.516600 39.081100 -0.000007 -0.000012 0.135691 -0.072150 61.997700 40.985400 -0.000006 -0.000013 -8.549980 0.191626 -54.992000 11.754300 -0.000000 0.000003 0.002487 0.082702 -13.222800 -2.192510 6.469440 -0.000001 -171.012000 -4.383440 176.847000 -39.081100 -0.002282 -0.040193 0.000907 0.005661 23.053700 -40.985400 0.000008 0.000006 9.784860 -0.406498 -72.401500 -11.754300 -0.000006 -0.000006 -0.003927 0.218345 -7.712150
0.000000 0.000000 0.000000 0.000000 0.000000 -0.000000 173.515000 91.228700 220.404000 100.898000 -54.195000 7.682790 15.735700 0.000005 -0.000001 101.556000 87.824300 -102.482000 8.984550 -0.406207 -0.000000 -3.494650 0.962229 -1.824830 16.377300 -0.000001 -0.000001 10.853700 -4.512610 -2.864300 6.456720 -0.000001 -0.000000 10.355100 -9.377810 -5.189680 12.994200 -0.242716 4.980390 -92.633700 6.786200 -68.730400 5.348090 -0.000007 -0.000001 -67.774700 -11.944100 13.151900 24.328600 0.000019 0.000005 15.482100 27.220300 -31.196600 22.291600 -0.000001 0.000005 55.363000 4.666910 13.747400 12.994500 -0.242716 -4.980390 89.093100 2.333280 -68.753000 -5.348130 -0.000001 -0.000004 -76.033300 13.839400 -8.799720 -24.328900 0.000322 -0.000009 -1.506700 -2.406610 -32.049400 -22.291500 -0.000108 -0.000004 44.912600 5.465870 -5.216940 -2.192480 -6.469440 -0.000000 -174.842000 -0.455523 -25.139800 39.081100 -0.000007 -0.000012 0.095997 -0.069026 54.280600 40.985400 -0.000006 -0.000013 -6.995780 -4.126550 -58.768700 11.754300 -0.000000 0.000003 0.002484 0.086720 -13.059900 -2.192510 6.469440 -0.000001 -172.973000 -8.414820 179.944000 -39.081100 -0.002282 -0.040193 -0.007838 0.031938 19.261900 -40.985400 0.000008 0.000006 9.553710 1.142010 -71.636600 -11.754300 -0.000006 -0.000006 -0.002588 0.203523 -8.315460
0.000000 0.000000 0.000000 0.000000 0.000000 -0.000000 172.023000 91.721300 222.783000 103.229000 -59.244700 8.831160 15.735700 0.000005 -0.000001 117.969000 87.927300 -119.112000 8.984550 -0.406207 -0.000000 -4.084640 2.060930 -2.214380 16.377300 -0.000001 -0.000001 9.677730 -3.358010 -3.528530 6.456720 -0.000001 -0.000000 9.936140 -8.238580 -5.163090 12.994200 -0.242716 4.980390 -92.625400 6.564700 -68.145300 5.348090 -0.000007 -0.000001 -65.148700 -14.824500 16.229000 24.328600 0.000019 0.000005 12.852300 26.811200 -26.830200 22.291600 -0.000001 0.000005 54.991300 4.690470 13.328300 12.994500 -0.242716 -4.980390 89.104700 2.396980 -69.511400 -5.348130 -0.000001 -0.000004 -75.636800 16.119100 -10.682300 -24.328900 0.000322 -0.000009 -0.575356 -0.805673 -35.501900 -22.291500 -0.000108 -0.000004 44.867200 5.462420 -5.090100 -2.192480 -6.469440 -0.000000 -174.502000 1.519590 -25.448700 39.081100 -0.000007 -0.000012 0.072732 -0.074728 44.223200 40.985400 -0.000006 -0.000013 -7.298200 -6.098780 -61.596600 11.754300 -0.000000 0.000003 0.002464 0.091871 -12.851100 -2.192510 6.469440 -0.000001 -174.796000 -9.981730 -177.342000 -39.081100 -0.002282 -0.040193 -0.010956 0.050805 15.704600 -40.985400 0.000008 0.000006 9.423950 4.552330 -70.748500 -11.754300 -0.000006 -0.000006 -0.000775 0.179832 -9.278680
0.000000 0.000000 0.000000 0.000000 0.000000 -0.000000 170.393000 91.895500 225.173000 104.625000 -63.250600 9.254720 15.735700 0.000005 -0.000001 130.434000 87.925800 -131.544000 8.984550 -0.406207 -0.000000 -4.583240 2.807650 -2.109160 16.377300 -0.000001 -0.000001 8.329950 -2.523580 -4.090430 6.456720 -0.000001 -0.000000 9.406130 -7.385910 -5.149050 12.994200 -0.242716 4.980390 -92.602700 6.394370 -67.797300 5.348090 -0.000007 -0.000001 -62.634400 -17.037600 18.714400 24.328600 0.000019 0.000005 10.362400 25.810300 -22.780400 22.291600 -0.000001 0.000005 54.484600 4.657500 13.913800 12.994500 -0.242716 -4.980390 89.144300 2.349930 -69.985400 -5.348130 -0.000001 -0.000004 -75.232200 17.440200 -12.148200 -24.328900 0.000322 -0.000009 0.416294 0.518267 -38.826400 -22.291500 -0.000108 -0.000004 44.748300 5.451980 -4.710800 -2.192480 -6.469440 -0.000000 -173.079000 4.441830 -25.267700 39.081100 -0.000007 -0.000012 0.044768 -0.068107 33.316700 40.985400 -0.000006 -0.000013 -7.127420 -4.539900 -63.110000 11.754300 -0.000000 0.000003 0.002455 0.093326 -12.792100 -2.192510 6.469440 -0.000001 -176.289000 -10.454900 -175.666000 -39.081100 -0.002282 -0.040193 -0.008535 0.048087 13.863200 -40.985400 0.000008 0.000006 9.151600 8.006060 -70.582800 -11.754300 -0.000006 -0.000006 0.000203 0.164185 -9.914220
0.000000 0.000000 0.000000 0.000000 0.000000 -0.000000 168.520000 91.763700 227.616000 105.108000 -66.011600 9.059500 15.735700 0.000005 -0.000001 138.341000 87.889900 -139.294000 8.984550 -0.406207 -0.000000 -4.937310 3.255370 -1.766890 16.377300 -0.000001 -0.000001 6.868950 -2.011490 -4.474650 6.456720 -0.000001 -0.000000 8.907400 -7.078120 -4.973520 12.994200 -0.242716 4.980390 -92.514600 6.127970 -67.638300 5.348090 -0.000007 -0.000001 -60.532600 -18.705000 20.431100 24.328600 0.000019 0.000005 8.539760 25.247200 -19.394300 22.291600 -0.000001 0.000005 54.176100 4.634660 14.314300 12.994500 -0.242716 -4.980390 89.183000 2.304040 -70.470900 -5.348130 -0.000001 -0.000004 -74.768900 17.644200 -12.587200 -24.328900 0.000322 -0.000009 1.038480 1.147100 -42.184500 -22.291500 -0.000108 -0.000004 44.293400 5.448780 -4.595760 -2.192480 -6.469440 -0.000000 -171.220000 7.336110 -24.527600 39.081100 -0.000007 -0.000012 0.018029 -0.044663 21.982300 40.985400 -0.000006 -0.000013 -7.322940 0.363596 -64.196600 11.754300 -0.000000 0.000003 0.002483 0.087174 -13.041500 -2.192510 6.469440 -0.000001 -177.304000 -10.976500 -174.521000 -39.081100 -0.002282 -0.040193 -0.005727 0.037556 13.561800 -40.985400 0.000008 0.000006 8.957230 10.380200 -70.868300 -11.754300 -0.000006 -0.000006 0.001542 0.135545 -11.076600
0.000000 0.000000 0.000000 0.000000 0.000000 -0.000000 166.353000 91.431100 230.123000 105.045000 -68.094300 8.570810 15.735700 0.000005 -0.000001 144.321000 87.791300 -145.109000 8.984550 -0.406207 -0.000000 -5.169600 3.673130 -1.412460 16.377300 -0.000001 -0.000001 5.638010 -1.795390 -4.455020 6.456720 -0.000001 -0.000000 8.236520 -6.964420 -4.759250 12.994200 -0.242716 4.980390 -92.410200 5.831300 -67.496800 5.348090 -0.000007 -0.000001 -58.759400 -19.824700 21.498900 24.328600 0.000019 0.000005 7.451630 24.677100 -17.394300 22.291600 -0.000001 0.000005 54.014800 4.613800 14.676600 12.994500 -0.242716 -4.980390 89.164800 2.410370 -70.882200 -5.348130 -0.000001 -0.000004 -74.175700 17.308100 -12.313900 -24.328900 0.000322 -0.000009 1.435150 1.447440 -44.785700 -22.291500 -0.000108 -0.000004 43.678100 5.452000 -4.711720 -2.192480 -6.469440 -0.000000 -169.928000 8.446540 -23.058800 39.081100 -0.000007 -0.000012 0.005968 -0.031751 10.646700 40.985400 -0.000006 -0.000013 -10.378400 6.036400 -64.363400 11.754300 -0.000000 0.000003 0.002423 0.097258 -12.632700 -2.192510 6.469440 -0.000001 -177.942000 -11.623500 -173.560000 -39.081100 -0.002282 -0.040193 -0.003586 0.027039 14.349800 -40.985400 0.000008 0.000006 9.018180 11.685600 -71.326000 -11.754300 -0.000006 -0.000006 0.002364 0.102622 -12.411700
